<svg width="348" height="415" viewBox="0 0 348 415" fill="none" xmlns="http://www.w3.org/2000/svg">
<path d="M171.973 138.9C162.369 123.337 153.499 108.931 147.807 95.0972C145.92 89.4871 144.438 83.9625 143.521 78.6683C140.294 63.5147 141.642 54.6143 147.638 42.3494C147.765 42.0928 147.9 41.8289 148.039 41.5649C150.892 39.9923 154.824 38.5275 159.33 38.1C169.37 37.1445 186.419 39.6019 192.939 57.306C199.817 76.0101 185.133 112.478 171.973 138.9ZM233.98 33.423C233.326 32.2073 230.895 27.8092 230.06 26.3035C229.902 26.0246 229.798 25.8425 229.775 25.8016C219.169 7.00076 218.811 10.5624 212.191 9.43219C211.944 9.39129 211.69 9.3281 211.443 9.26861C203.903 7.5919 190.944 2.85172 184.613 0.606185C178.07 -1.70627 160.851 3.26811 149.737 4.32396C146.91 4.58792 144.719 5.08984 142.97 5.74788C137.86 7.66254 136.589 10.9156 134.479 13.5812C133.246 15.1427 132.384 15.6149 131.24 15.8751C131.217 15.8788 131.186 15.8788 131.171 15.8863C122.525 18.8791 102.099 43.2045 106.512 76.7723C106.828 80.0662 107.544 83.2747 108.464 86.4162C116.91 118.631 145.173 161.835 152.113 174.096C146.999 185.458 136.085 208.787 132.603 230.759C132.461 231.502 131.617 236.551 131.563 240.789C131.101 251.958 133.269 262.178 139.978 269.517C140.021 269.561 141.295 270.881 141.353 270.941C144.784 274.205 148.828 276.279 152.899 277.525C158.66 279.919 163.043 278.581 167.283 277.885C169.174 278.993 171.153 279.848 173.167 280.514C185.29 284.559 198.854 281.313 205.208 277.885C213.731 275.212 217.617 270.383 220.051 262.895C222.504 255.843 226.259 241.451 217.759 220.152C213.943 210.954 206.264 196.559 194.433 175.635L194.356 175.513C203.841 158.184 229.239 115.307 233.761 102.778C234.007 102.116 234.219 101.477 234.431 100.837C242.11 81.8694 247.124 56.7781 233.98 33.423Z" fill="white"/>
<path d="M164.767 197.004C162.028 191.907 156.036 180.802 154.758 178.163C140.832 204.358 137.397 233.45 137.177 241.904C137.323 248.403 137.177 258.259 146.697 262.456C159.329 245.849 137.177 221.036 164.767 197.004Z" fill="#ACA9A6"/>
<path d="M196.736 109.644C199.994 94.0256 208.116 80.7085 197.803 59.0004C189.307 41.1291 174.685 34.7345 159.326 38.1028H159.33C169.378 37.1474 186.43 39.5974 192.943 57.3089C199.821 76.013 185.137 112.481 171.977 138.903C171.677 139.524 171.35 140.145 171.041 140.762C177.438 151.48 182.672 160.704 188.918 171.597C188.918 171.597 197.337 158.481 200.834 152.54C193.663 136.501 194.703 119.373 196.736 109.644Z" fill="#ACA9A6"/>
<path d="M236.636 58.7057C236.628 58.1666 236.628 57.6164 236.617 57.0996V57.0104C236.613 56.7762 236.601 56.568 236.601 56.3375C236.513 53.999 236.343 51.9765 236.112 50.3035C235.866 48.6565 235.569 47.4297 235.296 46.5523C234.079 43.0315 231.16 38.823 227.817 34.7744C221.278 26.8518 213.113 19.5724 212.859 19.3419C212.343 19.5612 211.816 19.8252 211.269 20.13C204.294 24.1601 204.456 29.6327 180.236 18.4347C176.578 16.7431 170.859 17.8139 167.659 18.0183C192.148 35.5774 219.025 34.8264 236.636 58.7057Z" fill="#BCBAB7"/>
<path d="M217.848 124.796C218.784 123.432 219.631 122.164 220.39 121.011C221.295 119.58 222.154 118.115 222.966 116.632C223.336 115.959 223.694 115.278 224.045 114.594C233.988 95.273 236.779 72.7291 236.636 58.7057C224.174 23.7511 187.836 39.3391 176.198 17.5455C176.006 17.5566 167.291 18.0474 167.106 18.066C167.676 18.7686 168.265 19.4601 168.885 20.1516C173.499 25.2376 184.305 35.5581 195.928 38.1903C207.558 40.8262 217.309 42.462 227.122 56.571C236.934 70.6911 226.498 90.5849 217.309 110.122C213.643 117.914 213.277 125.744 212.742 133.473C214.236 131.48 214.559 129.161 216.331 126.863C216.847 126.186 217.351 125.495 217.848 124.796Z" fill="#CCC9C6"/>
<path d="M227.122 56.5739C217.306 42.4575 207.558 40.8225 195.928 38.1903C184.301 35.5618 173.499 25.2331 168.885 20.1471C168.265 19.4631 167.676 18.7641 167.106 18.0689C159.088 18.8236 152.657 25.0249 148.317 33.9029C146.826 36.9552 145.578 40.3198 144.596 43.8814C147.808 41.1972 153.242 38.6754 159.33 38.1028C174.681 34.7308 189.312 41.1266 197.803 59.0053C208.121 80.706 199.995 94.0305 196.733 109.641C194.699 119.371 193.664 136.499 200.83 152.537C203.322 148.303 206.014 142.447 212.742 133.476C213.277 125.739 213.639 117.91 217.306 110.125C226.498 90.5841 236.931 70.6866 227.122 56.5739Z" fill="#BBB8B5"/>
<path d="M167.665 18.0144C167.472 18.0255 167.287 18.0517 167.098 18.0591C159.08 18.825 152.657 25.015 148.309 33.9005C146.822 36.9565 145.571 40.3173 144.596 43.8863C145.563 43.0796 146.714 42.2916 148.032 41.5666C150.893 39.9977 154.824 38.5304 159.33 38.1028C169.37 37.1511 186.427 39.6035 192.936 57.3038C199.818 76.0117 185.133 112.478 171.973 138.9C178.362 149.618 182.28 156.416 189.52 167.826C189.52 167.826 220.825 121.748 221.18 121.064C231.12 101.743 236.657 78.0455 235.175 59.0588C232.81 28.6102 213.112 19.5723 212.857 19.3455C212.341 19.5611 211.812 19.8289 211.269 20.13C204.298 24.1638 204.115 30.5992 179.896 19.4049C177.304 18.2004 173.849 17.9102 170.923 17.9102C169.717 17.9102 168.597 17.9549 167.665 18.0144Z" fill="url(#paint0_linear_270506_2423)"/>
<path d="M157.539 175.425C146.698 190.021 130.057 268.028 154.25 265.295C192.229 260.161 162.572 185.374 157.539 175.425Z" fill="#9A9794"/>
<path d="M167.665 18.0144C167.472 18.0255 167.287 18.0517 167.098 18.0591C159.08 18.825 152.657 25.015 148.309 33.9005C146.822 36.9565 145.571 40.3173 144.596 43.8863C145.563 43.0796 146.714 42.2916 148.032 41.5666C150.893 39.9977 154.824 38.5304 159.33 38.1028C169.37 37.1511 186.427 39.6035 192.936 57.3038C199.818 76.0117 185.133 112.478 171.973 138.9C178.362 149.618 183.866 160.564 190.124 171.454C190.124 171.454 223.695 115.282 224.041 114.594C233.989 95.269 238.257 72.6474 236.636 58.7057C234.98 44.5372 232.113 39.4651 228.508 34.2416C227.249 32.4124 213.112 19.5723 212.857 19.3455C212.341 19.5611 211.812 19.8289 211.269 20.13C204.298 24.1638 204.115 30.5992 179.896 19.4049C177.304 18.2004 173.849 17.9102 170.923 17.9102C169.717 17.9102 168.597 17.9549 167.665 18.0144Z" fill="url(#paint1_linear_270506_2423)"/>
<path d="M182.89 27.5094C172.565 27.6135 165.013 30.859 164.767 33.1752C212.998 34.6995 216.868 67.2746 169.719 149.59C151.842 180.801 144.741 209.495 144.652 228.771V229.496C144.706 241.65 147.606 249.929 152.358 252.535C153.987 253.427 155.732 253.848 157.457 253.874H157.754C165.213 253.773 172.118 246.211 167.278 236.549C161.254 224.533 166.342 199.746 181.75 172.67C197.155 145.582 251.005 71.1226 217.847 40.871C206.821 30.8107 194.112 27.6097 183.895 27.5094H182.89Z" fill="url(#paint2_linear_270506_2423)"/>
<path d="M160.485 32.1768C163.2 31.3254 166.034 30.8533 168.869 30.567C171.715 30.2733 174.588 30.225 177.445 30.4071C183.164 30.7752 188.898 32.1248 194.024 34.809C199.158 37.4635 203.51 41.5047 206.648 46.282C208.196 48.6837 209.467 51.2416 210.522 53.8775C211.493 56.532 212.325 59.2311 212.902 61.9971C215.255 73.0909 214.177 84.5789 211.789 95.5129C209.363 106.488 205.624 117.121 201.26 127.397C196.932 137.698 191.887 147.644 186.761 157.477L178.962 172.129L171.314 186.762C166.392 196.547 161.636 206.399 158.347 216.653C157.516 219.214 156.83 221.802 156.291 224.423C155.713 227.026 155.301 229.669 155.155 232.316C154.82 237.614 155.428 243.016 157.631 248.057L156.969 248.395C153.765 243.715 152.186 238 151.824 232.327C151.427 226.639 152.139 220.943 153.322 215.422C154.458 209.879 156.21 204.511 158.101 199.231C159.992 193.945 162.21 188.799 164.498 183.706C173.74 163.385 184.62 144.086 194.267 124.426C196.647 119.496 199.011 114.57 201.103 109.547C203.232 104.536 205.185 99.4611 206.76 94.2897C209.933 83.984 211.732 73.1207 210.103 62.4804C209.744 59.8259 208.997 57.2235 208.196 54.6619C207.303 52.1301 206.201 49.6689 204.842 47.3416C202.065 42.7241 198.126 38.7536 193.312 36.0136C188.517 33.255 182.995 31.7084 177.383 31.1321C174.572 30.8458 171.734 30.7826 168.903 30.9574C166.077 31.1395 163.246 31.4964 160.504 32.24L160.485 32.1768Z" fill="#797775"/>
<path d="M132 235.671C132 251.68 139.69 261.041 145.821 264.841C147.782 266.056 151.09 266.908 154.598 266.978H155.526C156.959 266.949 158.407 266.789 159.797 266.462C169.248 264.238 176.403 255.085 176.569 238.054V236.827C176.503 230.024 175.352 222.008 172.837 212.732C171.997 209.628 165.289 195.582 163.956 193.095C161.218 188.002 154.918 176.015 153.635 173.376C142.679 197.285 132.219 227.202 132 235.671Z" fill="url(#paint3_linear_270506_2423)"/>
<path d="M148.309 33.9005C146.822 36.9565 145.578 40.3173 144.596 43.8863C145.555 43.0796 146.721 42.2899 148.039 41.5649C150.896 39.996 154.826 38.5284 159.324 38.1008C169.371 37.1491 186.42 39.6027 192.94 57.3031C199.818 76.0109 185.133 112.478 171.973 138.9C178.362 149.618 184.279 159.557 190.522 170.446C190.522 170.446 223.695 115.282 224.041 114.594C233.989 95.2728 243.294 59.0579 227.82 34.7733C222.32 26.1444 214.429 19.6718 214.167 19.445C213.135 19.5937 211.812 19.8289 211.269 20.13C204.298 24.1638 206.719 27.4382 182.038 17.2292C180.02 16.3927 177.894 16.0208 175.737 16.0208C164.338 16.0208 151.964 26.4352 148.309 33.9005Z" fill="url(#paint4_linear_270506_2423)"/>
<path d="M175.784 17.718C167.755 17.7737 158.762 24.1053 155.416 27.7301C151.526 31.9498 145.578 40.3173 144.596 43.8863C147.808 41.2058 153.242 38.6791 159.326 38.1028C169.374 37.1511 186.42 39.6027 192.94 57.3031C199.818 76.0109 185.137 112.481 171.977 138.903C171.669 139.524 171.353 140.148 171.041 140.762C169.72 143.026 154.182 171.866 153.635 173.376C144.038 200.099 134.754 227.483 134.535 235.948C134.535 250.444 139.857 266.712 154.784 266.939H155.416C156.798 266.921 158.253 266.763 159.797 266.462C174 263.662 177.533 241.264 175.399 229.724C175.399 229.724 170.816 210.972 170.601 210.581C170.601 210.581 198.8 155.997 200.834 152.54C203.314 148.305 223.698 115.282 224.045 114.594C233.992 95.273 237.591 72.6994 236.636 58.7057C236.301 53.7796 231.159 38.8257 227.82 34.7733C221.277 26.8508 211.812 19.8289 211.269 20.13C204.298 24.1638 205.395 27.4922 180.244 18.4357C178.9 17.9524 177.486 17.7291 176.038 17.718H175.784Z" fill="url(#paint5_linear_270506_2423)"/>
<path d="M159.063 35.4844C157.758 35.6145 153.198 36.4733 150.425 37.3619L148.927 39.5775L148.032 41.5666C150.893 39.9977 154.827 38.5292 159.333 38.1016C169.373 37.1499 186.43 39.6057 192.939 57.306C199.821 76.0139 185.137 112.481 171.977 138.903C171.692 139.479 171.398 140.047 171.113 140.619C173.232 142.337 174.899 143.642 174.899 143.642C175.296 143.01 175.538 142.489 175.893 141.839C189.441 114.58 202.704 75.9746 195.51 56.4302C192.711 48.8348 187.874 43.1467 181.13 39.533C180.707 39.3099 178.146 38.1165 177.256 37.7894C176.825 37.6184 176.393 37.4623 175.958 37.3135C175.115 37.031 172.492 36.3393 172.061 36.2464C170.42 35.882 168.718 35.6217 166.993 35.473C165.706 35.3541 164.393 35.3022 163.095 35.3022C161.736 35.3022 160.373 35.358 159.063 35.4844Z" fill="url(#paint6_linear_270506_2423)"/>
<path d="M189.523 167.824C188.468 166.117 187.836 165.177 187.836 165.177C187.439 164.53 187.066 163.916 186.681 163.295C172.077 137.948 156.353 115.875 147.804 95.1002C145.92 89.4901 144.438 83.9618 143.517 78.6751C140.294 63.514 141.642 54.6136 147.638 42.3524C153.403 30.5522 170.837 15.8261 180.592 20.3357C201.627 30.0577 204.427 25.3659 209.499 21.373C209.656 21.2577 210.053 20.9752 210.215 20.8302C210.327 20.7484 210.97 20.3469 211.078 20.2725C266.226 61.1941 207.107 140.286 189.523 167.824ZM155.876 263.72C154.424 263.939 153.033 263.977 151.705 263.843C149.506 263.56 147.303 262.727 145.196 261.326C142.246 259.363 140.055 256.463 138.927 253.18C135.503 243.28 136.219 223.583 154.535 178.981C156.442 182.988 158.236 186.758 159.026 188.305C169.624 209.009 172.17 228 172.181 239.339C171.037 253.611 163.913 262.266 155.876 263.72ZM233.98 33.423C233.326 32.211 230.899 27.8166 230.06 26.3035C229.902 26.0209 229.798 25.838 229.775 25.7971C219.169 7.00006 218.811 10.5691 212.183 9.43891C211.948 9.39802 211.69 9.32739 211.443 9.27162C203.903 7.59862 190.936 2.85101 184.605 0.612908C178.07 -1.70327 160.851 3.26741 149.737 4.31954C146.902 4.59094 144.719 5.0891 142.97 5.74343C137.86 7.6618 136.589 10.9156 134.479 13.5812C133.246 15.139 132.376 15.6178 131.236 15.8707C131.217 15.8781 131.186 15.8781 131.171 15.8893C122.525 18.8784 102.099 43.2075 106.512 76.7679C106.82 80.0618 107.544 83.274 108.461 86.4192C116.91 118.63 145.173 161.842 152.113 174.096C146.999 185.462 136.085 208.786 132.603 230.754C132.461 231.498 131.617 236.558 131.563 240.781V240.789C131.097 251.958 133.262 262.185 139.978 269.52C140.021 269.561 141.295 270.884 141.357 270.944C144.781 274.2 148.828 276.282 152.903 277.532C158.66 279.922 163.043 278.58 167.275 277.881C169.173 278.996 171.153 279.844 173.171 280.513C185.29 284.562 198.854 281.309 205.208 277.881C213.731 275.212 217.609 270.382 220.051 262.898C222.504 255.849 226.259 241.451 217.763 220.155C213.939 210.954 206.264 196.555 194.433 175.635L194.356 175.513C203.837 158.184 229.236 115.31 233.765 102.777C234.007 102.119 234.219 101.48 234.431 100.844C242.11 81.8724 247.124 56.7743 233.98 33.423Z" fill="#EFECE8"/>
<path d="M211.134 134.804C210.337 136.046 208.303 138.983 205.773 142.604C199.465 152.906 193.469 161.643 189.529 167.814C190.811 169.811 193.669 174.306 194.89 176.447C194.732 176.176 194.583 175.911 194.433 175.635L194.356 175.513C194.964 174.405 195.641 173.187 196.372 171.874C196.399 164.907 208.677 140.217 211.134 134.804Z" fill="#DAD7D3"/>
<path d="M184.526 5.21676C179.87 2.80764 173.927 3.00096 168.262 3.95643C166.533 4.25013 162.401 5.016 162.401 5.016C162.401 5.016 170.754 6.99757 177.424 9.27285C181.722 10.8603 188.931 13.5483 197.619 9.12414L197.781 8.76352C193.776 8.35084 188.951 7.50691 184.526 5.21676Z" fill="#BBB8B5"/>
<path d="M157.345 7.11915C155.435 7.85155 153.763 8.49465 152.577 9.12667C136.903 17.5177 132.451 25.8232 131.708 26.4961C131.261 29.4183 130.576 31.6602 130.237 35.2144C133.137 36.6569 147.197 34.0135 156.544 26.9089C157.703 25.972 158.924 25.0761 160.195 24.2247C160.688 23.8566 161.138 23.6334 161.516 23.3583C161.577 23.336 161.631 23.2209 161.689 23.1986C167.034 18.5885 173.323 7.28653 179.204 10.0786C179.674 10.3016 180.14 10.506 180.594 10.6919C179.901 10.3053 179.204 9.92247 178.499 9.55441C174.286 7.37207 169.826 5.78081 164.982 5.78081C162.544 5.78081 160.002 6.18599 157.345 7.11915Z" fill="url(#paint7_linear_270506_2423)"/>
<path d="M134.168 16.4985C133.471 18.1752 132.893 19.7924 132.5 21.867C132.227 23.2909 131.965 24.8449 131.711 26.5067C141.593 14.6693 151.552 9.60573 152.584 9.13357C153.739 8.58334 156.912 6.48279 158.322 6.03294C147.6 8.83986 141.616 13.0595 135.211 14.9296C134.926 15.1787 134.333 16.1044 134.168 16.4985Z" fill="#F6F2EE"/>
<path d="M186.673 20.6018C170.29 11.7349 161.841 23.0146 161.841 23.0146C161.791 23.0295 161.741 23.1856 161.695 23.2042C155.872 28.2306 150.045 35.2349 147.634 42.3545C153.407 30.5505 170.841 15.8244 180.596 20.3378C203.664 30.9967 204.823 24.353 211.081 20.2746C206.51 22.9403 202.728 29.2865 186.673 20.6018Z" fill="#EBE7E3"/>
<path d="M209.467 21.0597C198.715 25.4021 191.455 16.8921 180.595 10.6983C180.137 10.505 179.674 10.3091 179.204 10.0786C171.66 6.45003 158.964 25.6884 158.994 25.6735C161.421 23.9485 170.29 11.7349 186.673 20.6018C202.724 29.2865 205.115 24.3537 209.479 21.3869C209.698 21.2419 211.081 20.2746 211.081 20.2746C211.081 20.2746 209.687 20.8962 209.479 21.0523L209.467 21.0597Z" fill="#FFFBF7"/>
<path d="M156.544 26.9089C147.19 33.7756 133.135 36.655 130.239 35.22C128.964 48.7862 125.907 66.3266 129.018 86.1461C130.378 94.8011 132.195 104.014 133.705 113.13C129.869 84.0121 129.059 49.0557 156.544 26.9089Z" fill="#EFECE8"/>
<path d="M142.97 5.74788C137.86 7.66626 136.591 10.9179 134.48 13.5836C133.24 15.145 132.378 15.6246 131.238 15.8774C132.019 15.7176 132.944 15.5056 133.995 15.2566C136.849 14.5651 139.267 13.5427 142.098 12.3381C144.697 11.2302 147.64 9.9736 151.418 8.48649C153.516 7.66114 157.953 6.10339 160.291 5.49367C162.659 4.8728 168.813 3.86157 169.148 3.79837C169.148 3.79837 171.513 3.50466 172.279 3.39313C172.06 3.408 146.236 4.82959 142.97 5.74788Z" fill="#EFECE8"/>
<path d="M171.633 3.42826C171.086 3.46544 146.232 4.82959 142.97 5.74788C137.864 7.66626 136.591 10.9195 134.481 13.5777C133.241 15.1429 132.376 15.6223 131.24 15.8751C132.018 15.7152 132.944 15.5073 133.988 15.2508C136.846 14.563 139.268 13.5368 142.098 12.3285C144.694 11.2244 147.64 9.97521 151.422 8.48438C153.513 7.65903 157.95 6.09382 160.283 5.48411C162.66 4.87068 168.575 3.87802 169.145 3.79994C169.931 3.69213 171.513 3.49723 172.279 3.39313C172.06 3.40056 171.845 3.40967 171.633 3.42826Z" fill="url(#paint8_linear_270506_2423)"/>
<path d="M208.841 271.783C208.587 272.299 208.386 272.749 208.124 273.195C207.227 274.894 206.252 276.473 205.208 277.885C213.781 275.194 217.617 270.461 220.051 262.895C210.97 272.101 208.841 271.783 208.841 271.783Z" fill="#D2CFCB"/>
<path d="M188.919 274.307C182.091 271.418 176.603 277.084 173.172 280.519C185.295 284.56 198.855 281.311 205.213 277.879C206.249 276.47 207.227 274.898 208.125 273.199C204.539 278.954 195.524 277.102 188.919 274.307Z" fill="#DEDBD7"/>
<path d="M167.934 264.493C171.392 257.92 173.225 246.012 172.182 239.342C171.022 253.57 163.898 262.266 155.88 263.719C154.428 263.943 153.03 263.976 151.709 263.842C149.506 263.56 147.307 262.731 145.193 261.329C144.842 261.095 144.507 260.842 144.176 260.585C138.057 258.827 133.131 253.823 131.683 247.696C131.672 247.633 131.645 247.581 131.633 247.521C131.695 248.517 131.791 249.51 131.914 250.488L131.937 250.7C132.315 253.659 132.95 256.5 133.898 259.173C140.641 270.962 160.047 279.483 167.934 264.493Z" fill="#EBE7E3"/>
<path d="M155.876 263.72C154.424 263.943 153.033 263.977 151.705 263.843C149.51 263.56 147.304 262.732 145.197 261.33C143.584 260.252 142.193 258.899 141.077 257.345C135.543 251.813 132.493 241.946 132.003 235.246L131.984 235.001V235.012C131.776 236.789 131.587 238.875 131.563 240.789L131.564 240.797C131.395 244.853 131.576 248.783 132.192 252.501C132.215 252.567 132.227 252.638 132.238 252.716C138.365 263.962 155.368 275.179 166.687 256.237C163.744 260.427 159.923 262.988 155.876 263.72Z" fill="#F2EFEA"/>
<path d="M229.778 25.8005C219.172 6.99968 218.814 10.565 212.186 9.43854C203.213 9.90326 193.185 15.9478 180.595 10.6983C198.314 20.9371 213.237 -1.14969 230.02 26.2355C230.032 26.2578 230.228 26.6147 230.244 26.637C230.171 26.5143 230.117 26.4028 230.055 26.3061C229.905 26.0235 229.801 25.8414 229.778 25.8005Z" fill="#E7E4E0"/>
<path d="M211.079 20.2695C211.179 20.2101 211.29 20.1469 211.394 20.0837C215.373 17.5556 223.136 16.2209 230.061 26.2998C219.89 9.67392 210.412 11.2019 200.58 12.7373C194.161 13.7411 187.592 14.7406 180.594 10.6919C190.449 16.8225 201.655 25.9131 211.079 20.2695Z" fill="url(#paint9_linear_270506_2423)"/>
<path d="M152.903 277.532C157.358 274.844 161.161 271.083 164.184 266.722C155.762 274.195 137.526 271.771 132.17 252.36C133.244 258.922 135.676 264.817 139.978 269.52C140.021 269.568 141.295 270.888 141.357 270.944C144.781 274.208 148.828 276.282 152.903 277.532Z" fill="#CCC9C6"/>
<path d="M184.61 0.610233C178.071 -1.70594 160.855 3.27112 149.737 4.31954C146.906 4.58722 144.716 5.09387 142.976 5.74448C149.549 4.36519 150.004 5.73705 169.263 3.65881C169.36 3.64394 171.79 3.41715 172.41 3.38369C176.738 3.1123 181.006 3.39504 184.526 5.21676C188.951 7.50319 193.125 8.46961 197.134 8.88601C202.121 9.39906 206.85 9.04959 211.441 9.27265C203.908 7.59594 190.941 2.84833 184.61 0.610233Z" fill="#F2EFEA"/>
<path d="M179.555 0.00767427C171.448 0.126643 158.641 3.48003 149.737 4.32396C146.902 4.58792 144.715 5.09355 142.97 5.74788C149.617 4.46153 150.29 5.73326 169.268 3.65874C169.357 3.64387 171.795 3.41704 172.403 3.37986C176.74 3.11218 180.999 3.39466 184.523 5.21265C188.948 7.50652 193.126 8.46579 197.131 8.87847C200.139 9.19448 203.047 9.19451 205.896 9.18707C207.772 9.18707 209.614 9.18682 211.443 9.26861C203.899 7.59561 190.939 2.85567 184.615 0.610134C183.491 0.21605 182.069 0.0336987 180.41 0.00767427H179.555Z" fill="url(#paint10_linear_270506_2423)"/>
<path d="M197.131 8.88334L196.607 9.13987C189.429 12.88 182.797 11.1437 178.503 9.55626C179.204 9.9206 179.909 10.2998 180.594 10.7013C193.184 15.9508 203.212 9.89829 212.185 9.43357C211.95 9.39267 211.69 9.3281 211.443 9.26861C206.853 9.04555 202.126 9.40011 197.131 8.88334Z" fill="#EBE7E3"/>
<path d="M211.136 221.035C202.983 186.308 185.245 163.696 169.621 145.17C156.358 129.459 149.145 112.514 145.825 97.1814C146.152 100.698 146.453 104.386 146.699 108.141C149.722 129.441 157.948 154.74 182.149 183.367C204.139 209.373 208.795 212.92 211.136 221.035Z" fill="#FFFBF7"/>
<path d="M230.47 27.0405C230.47 27.0479 230.724 27.6093 230.724 27.6093C230.786 27.7432 232.249 31.078 232.303 31.2081C236.389 40.4654 232.164 48.0905 231.356 49.4029C237.252 69.5421 231.071 92.5849 221.497 113.531C217.326 122.706 217.48 130.93 216.271 136.73C216.282 136.7 216.302 136.67 216.313 136.648C224.266 122.45 231.537 108.947 233.767 102.783C234.009 102.121 234.221 101.482 234.433 100.842C242.108 81.874 247.126 56.779 233.986 33.4276C233.412 32.3718 231.51 28.9217 230.47 27.0405Z" fill="#EBE7E3"/>
<path d="M211.081 20.2746C216.889 24.5872 220.923 29.6732 224.381 34.7257C223.206 26.7139 221.111 18.7616 214.168 19.4419C213.294 19.5349 212.481 19.6873 211.649 20.0219C211.622 20.0293 211.547 19.9214 211.081 20.2746Z" fill="#DEDBD7"/>
<path d="M232.484 31.0368C232.43 30.9067 228.356 25.1999 226.037 22.9209C223.488 20.2552 219.791 18.6678 216.556 18.7495C213.575 18.8239 212.404 19.5935 211.48 20.0322C211.334 20.0954 211.164 20.2255 211.087 20.2776C221.023 17.5227 222.918 26.7985 224.385 34.7211C227.578 39.3869 229.869 44.3093 231.36 49.4249C231.926 48.3988 236.15 40.1491 232.484 31.0368Z" fill="#CCC9C6"/>
<path d="M173.174 280.516C177.491 277.111 181.046 273.397 185.594 273.542C182.321 273.408 170.109 275.94 167.278 277.884C169.181 278.992 171.16 279.847 173.174 280.516Z" fill="#D2CFCB"/>
<path d="M214.908 244.596C214.781 241.354 214.404 238.145 213.784 235.045C212.548 228.866 210.302 223.114 206.848 218.408C194.112 201.068 163.588 169.099 155.67 144.193C157.969 159.804 154.049 178.575 160.527 187.796C162.729 190.536 164.859 193.238 166.892 195.885C182.428 213.783 200.509 224.163 199.939 249.552C199.635 263.002 194.948 267.802 188.097 274.003C188.362 274.089 188.634 274.188 188.919 274.307C195.531 277.087 204.543 278.95 208.125 273.199C212.75 264.466 215.382 256.381 214.908 244.596Z" fill="#EFECE8"/>
<path d="M201.129 251.703C205.239 219.05 185.71 201.558 167.105 180.976C164.952 178.664 158.736 176.032 161.174 181.452C171.676 197.39 178.681 212.852 180.345 219.284C190.154 257.246 179.379 269.253 167.283 277.885C170.109 275.937 182.324 273.408 185.59 273.545C186.391 273.567 187.223 273.713 188.097 274.003C193.669 268.955 197.556 266.299 199.751 258.261C200.063 257.146 200.34 255.904 200.621 254.532C200.802 253.648 201.002 252.711 201.129 251.703Z" fill="#E7E4E0"/>
<path d="M186.78 227.839C182.239 210.284 171.475 182.88 152.374 158.953C152.081 159.808 150.394 164.972 148.996 168.812C150.267 170.928 151.331 172.713 152.113 174.096C153.095 175.933 153.725 177.207 154.534 178.984C156.44 182.992 158.239 186.762 159.025 188.308C169.627 209.013 172.17 227.999 172.182 239.342C172.971 253.559 165.598 269.873 152.901 277.527C158.663 279.925 163.046 278.584 167.283 277.885C177.619 274.253 196.588 265.805 186.78 227.839Z" fill="#F2EFEA"/>
<path d="M122.255 26.4166C109.438 43.3288 106.269 70.7512 111.391 85.3063C117.934 103.914 120.861 113.115 137.024 138.009C138.51 140.296 128.648 102.241 126.491 92.9835C124.519 84.5144 118.535 49.9092 131.189 22.6319C132.364 20.1001 133.704 17.3118 135.214 14.9324C130.134 17.5051 125.821 21.7173 122.255 26.4166Z" fill="url(#paint11_linear_270506_2423)"/>
<path d="M162.702 18.0652C156.825 20.7977 151.745 24.8576 147.471 29.4564C143.184 34.0702 139.861 39.4312 137.535 45.1455C132.898 56.6371 132.544 69.3408 134.573 81.5053C136.483 93.7591 141.066 105.604 143.677 118.092C145.002 124.316 145.742 130.714 145.53 137.082C145.303 143.447 144.143 149.76 142.118 155.749C143.385 149.567 144.055 143.306 143.793 137.082C143.6 130.859 142.51 124.713 140.989 118.665C139.43 112.623 137.523 106.634 135.648 100.589C133.83 94.5287 132.132 88.3646 131.1 82.0333C130.106 75.7093 129.709 69.259 130.245 62.8347C130.564 59.6299 131.023 56.4326 131.839 53.3023C132.613 50.1682 133.649 47.0787 135.016 44.138C137.681 38.2193 141.505 32.8099 146.234 28.3188C150.987 23.8909 156.505 20.1211 162.702 18.0652Z" fill="#CCC9C6"/>
<path d="M149.383 168.317C150.688 164.96 151.524 161.473 151.921 157.934C152.24 154.387 152.321 150.825 152.048 147.267C151.659 140.148 150.53 133.069 149.425 125.991C148.358 118.904 147.126 111.833 146.136 104.729C145.093 97.6313 144.746 90.5081 144.041 83.3699L150.75 125.797C151.855 132.887 152.884 140.014 153.134 147.223C153.28 150.825 153.061 154.439 152.614 158.015C151.982 161.577 150.985 165.076 149.383 168.317Z" fill="#CCC9C6"/>
<path d="M130.929 23.2033C129.497 27.7167 128.203 32.2635 127.255 36.8736C126.239 41.4762 125.491 46.1234 125.022 50.7929C124.047 60.1283 124.047 69.5566 125.052 78.8808C125.996 88.2161 128.253 97.3804 130.664 106.504C131.854 111.077 133.144 115.627 134.226 120.245C135.239 124.858 136.205 129.554 136.059 134.294C135.836 129.569 134.719 124.97 133.444 120.427C132.181 115.88 130.771 111.367 129.423 106.831C126.697 97.7671 124.475 88.4949 123.373 79.0518C122.869 74.3265 122.649 69.5789 122.711 64.835C122.776 60.0911 123.031 55.3472 123.674 50.648C124.313 45.9412 125.23 41.2829 126.408 36.6877C127.644 32.1111 129.115 27.594 130.929 23.2033Z" fill="#CCC9C6"/>
<path d="M121.77 27.0882C119.621 31.0105 118.165 35.2339 116.979 39.5019C115.805 43.7736 114.984 48.1272 114.334 52.4918C113.109 61.2398 112.966 70.1141 113.91 78.862C114.85 87.6099 117.018 96.2426 120.642 104.284C122.494 108.27 124.585 112.248 126.646 116.166C128.671 120.118 131.009 123.914 133.189 127.847C131.725 126.122 130.343 124.349 128.999 122.531C127.693 120.702 126.426 118.828 125.236 116.917C124.077 114.984 122.96 113.032 121.92 111.047C120.865 109.084 119.864 107.054 118.94 104.991C115.293 96.7371 113.167 87.9111 112.281 79.0219C111.364 70.1178 111.865 61.1357 113.278 52.3394C114.014 47.945 115.031 43.584 116.39 39.3346C117.753 35.0926 119.386 30.8841 121.77 27.0882Z" fill="#DEDBD7"/>
<path d="M131.711 26.5067C135.912 20.3427 141.714 15.2999 148.026 11.1063C151.207 9.02429 154.643 7.26579 158.328 6.03148C159.657 5.60394 161.005 5.23216 162.406 5.01653C162.953 4.9273 163.531 4.88269 164.089 4.84551C165.091 4.8009 166.104 4.78231 167.113 4.94589C168.137 5.06486 169.115 5.38087 170.012 5.6783C177.357 8.20267 183.719 12.4409 190.154 16.2665C193.377 18.1737 196.666 20.0066 200.236 21.1034C202.008 21.6536 203.871 21.9919 205.735 21.8692C207.599 21.7577 209.447 21.2144 211.087 20.2776C209.543 21.3557 207.703 22.07 205.778 22.2968C203.848 22.5459 201.888 22.3079 200.013 21.8543C196.254 20.8914 192.838 19.1143 189.503 17.3335C182.864 13.7236 176.567 9.50389 169.466 7.21374C168.561 6.93862 167.729 6.66351 166.862 6.54454C165.996 6.39211 165.091 6.39954 164.19 6.42185C162.387 6.51851 160.573 6.91632 158.817 7.45911C155.282 8.56329 151.958 10.3032 148.747 12.1881C145.542 14.0953 142.508 16.2851 139.654 18.6756C136.766 21.0327 134.071 23.6255 131.711 26.5067Z" fill="#CCC9C6"/>
<path d="M211.081 20.2746C212.599 19.0738 214.539 18.2784 216.588 18.1409C218.625 17.9996 220.708 18.4643 222.53 19.3603C225.769 20.9441 228.164 23.1933 230.051 26.3051C230.105 26.3943 230.305 26.7438 230.482 27.071C230.598 27.2792 230.706 27.4836 230.767 27.5952C232.801 31.2274 234.106 34.7445 234.264 38.6035C234.468 42.4477 233.563 46.277 231.361 49.4297C233.109 46.1394 233.721 42.351 233.375 38.663C232.993 34.9712 231.738 31.3873 229.793 28.2049C227.871 25.0336 225.23 22.2155 221.952 20.4273C220.312 19.5499 218.486 19.0108 216.611 18.9551C214.728 18.903 212.818 19.3675 211.081 20.2746Z" fill="#BBB8B5"/>
<path d="M153.678 158.199C155.492 166.345 158.295 174.249 162.243 181.599C164.172 185.298 166.363 188.859 168.774 192.28L172.464 197.399L174.304 199.987C174.913 200.849 175.46 201.764 176.041 202.641C178.379 206.169 180.374 209.891 182.276 213.661C184.071 217.475 185.607 221.405 186.805 225.439C187.949 229.476 188.8 233.595 189.181 237.763C189.597 241.927 189.663 243.682 189.505 247.835C189.401 243.674 189.208 241.934 188.607 237.826C188.041 233.711 187.156 229.647 185.904 225.691C184.629 221.736 182.977 217.906 181.206 214.144C179.295 210.441 177.297 206.772 174.947 203.299C174.366 202.429 173.811 201.541 173.211 200.686L171.366 198.135C170.153 196.44 168.882 194.73 167.688 192.99C165.289 189.499 163.105 185.863 161.199 182.104C157.409 174.561 154.845 166.456 153.678 158.199Z" fill="#CCC9C6"/>
<path d="M151.278 135.751C151.929 141.376 153.45 146.867 155.195 152.255C156.947 157.638 159.05 162.917 161.515 168.022C166.459 178.227 172.771 187.878 180.936 195.898C182.988 197.857 185.134 199.894 187.051 202.058C188.981 204.225 190.737 206.534 192.343 208.939C195.547 213.743 198 219.018 199.587 224.521C202.252 233.756 202.602 243.507 200.946 252.884C200.623 254.687 200.218 256.486 199.749 258.263C200.896 252.705 201.466 247.058 201.262 241.425C201.108 235.797 200.234 230.187 198.559 224.814C196.864 219.45 194.488 214.278 191.295 209.59C189.705 207.252 187.96 204.999 186.054 202.891C184.148 200.757 182.068 198.857 179.977 196.801C171.77 188.581 165.35 178.818 160.59 168.438C158.218 163.237 156.196 157.883 154.575 152.429C153.778 149.697 153.081 146.946 152.491 144.165C151.914 141.387 151.413 138.581 151.278 135.751Z" fill="#D2CFCB"/>
<path d="M221.173 121.067C224.227 115.342 226.734 109.404 228.93 103.381C231.129 97.3624 232.95 91.2169 234.417 84.9971C235.862 78.781 236.882 72.4682 237.29 66.1108C237.452 62.9358 237.46 59.7348 237.102 56.5784L236.848 54.199L236.335 51.8605L236.089 50.6857C235.985 50.2953 235.815 49.931 235.692 49.5518L234.899 47.2654C238.018 53.013 238.769 59.7125 238.754 66.1479C238.754 69.3936 238.515 72.6318 238.084 75.8513C237.679 79.0635 237.109 82.2571 236.378 85.4209C234.964 91.7486 232.985 97.9498 230.516 103.961C228.028 109.955 224.978 115.769 221.173 121.067Z" fill="#FFFBF7"/>
<path d="M148.487 118.784C148.252 117.695 148.106 117.085 148.106 117.085C148.106 117.085 148.233 117.687 148.487 118.784ZM147.624 166.528C148.26 167.584 148.78 168.413 149.326 169.357C149.581 169.796 149.862 170.253 150.12 170.688C171.817 207.305 205.83 234.017 186.717 262.926C185.011 265.51 183.266 268.161 180.278 270.737C183.732 267.99 186.436 268.317 188.85 268.651C191.392 269.001 193.626 269.354 196.106 266.101C196.807 265.183 197.743 263.699 198.544 261.781C198.975 260.773 199.362 259.663 199.751 258.261C199.751 258.261 210.178 271.849 220.368 261.978C223.799 250.951 225.167 234.34 209.935 216.29C192.605 195.753 181.803 193.679 167.804 170.532C156.732 152.233 150.097 125.703 148.487 118.784C150.112 126.268 155.973 156.352 147.624 166.528Z" fill="url(#paint12_linear_270506_2423)"/>
<path d="M127.353 34.8253C124.237 48.0754 122.281 67.4858 125.404 87.3053C126.764 95.9714 133.411 114.891 134.916 124.011C131.092 94.8969 116.747 39.1862 162.706 18.058C151.761 20.6791 130.249 36.2529 127.353 34.8253Z" fill="url(#paint13_linear_270506_2423)"/>
<path d="M179.555 0.00767427C171.448 0.126643 158.641 3.48003 149.737 4.32396C146.902 4.58792 144.715 5.09355 142.97 5.74788C137.864 7.66626 136.591 10.9195 134.481 13.5777C133.241 15.1429 132.376 15.6223 131.24 15.8751C131.213 15.8788 131.187 15.8788 131.168 15.89C122.522 18.8828 102.099 43.2118 106.509 76.7722C106.825 80.0662 107.544 83.2747 108.464 86.4162C116.902 118.631 145.173 161.835 152.113 174.096C146.999 185.458 136.085 208.786 132.603 230.754C132.457 231.502 131.618 236.551 131.564 240.778C131.095 251.961 133.267 262.178 139.983 269.517C140.021 269.565 141.296 270.889 141.354 270.944C144.778 274.205 148.829 276.279 152.896 277.529L152.901 277.527C158.663 279.914 163.051 278.581 167.276 277.886C169.174 278.993 171.153 279.848 173.167 280.514C185.29 284.559 198.85 281.313 205.208 277.885C213.731 275.212 217.617 270.376 220.051 262.895C222.504 255.846 226.259 241.451 217.763 220.155C213.935 210.954 206.265 196.559 194.426 175.639L194.353 175.513C203.834 158.184 229.236 115.314 233.761 102.778C234.003 102.116 234.219 101.477 234.431 100.837C242.106 81.8693 247.125 56.7706 233.981 33.4267C233.326 32.2035 230.9 27.8204 230.061 26.2998C229.907 26.0247 229.805 25.8414 229.778 25.8005C219.172 6.99596 218.813 10.5638 212.185 9.43357C211.946 9.40011 211.69 9.3281 211.443 9.26861C203.899 7.59561 190.939 2.85567 184.615 0.610134C183.491 0.21605 182.069 0.0336987 180.41 0.00767427H179.555ZM187.833 165.174C187.44 164.527 187.063 163.917 186.682 163.292C172.078 137.952 156.354 115.876 147.808 95.1047C145.917 89.4909 144.439 83.9626 143.518 78.6722C140.295 63.5185 141.639 54.6107 147.639 42.3569C153.404 30.553 170.838 15.8268 180.593 20.3328C191.318 25.2923 197.218 26.4634 201.112 26.0061C204.851 25.56 206.707 23.5933 209.191 21.6303C209.707 21.1953 210.971 20.3513 211.079 20.2695C216.905 24.6008 220.922 29.6569 224.388 34.7131C253.78 77.5753 205.255 143.196 189.52 167.826C188.461 166.116 187.841 165.177 187.833 165.174ZM151.702 263.84C149.503 263.561 147.304 262.724 145.19 261.33C142.247 259.364 140.052 256.46 138.92 253.184C135.504 243.273 136.222 223.579 154.534 178.984C156.448 182.984 158.245 186.759 159.023 188.306C169.621 209.01 172.166 227.995 172.182 239.342C171.038 253.607 163.91 262.267 155.873 263.721C154.991 263.855 154.128 263.918 153.285 263.918C152.749 263.918 152.222 263.888 151.702 263.84Z" fill="url(#paint14_linear_270506_2423)"/>
<path d="M179.961 0.00405806C171.881 0.0114936 158.787 3.46516 149.737 4.32396C146.902 4.58792 144.715 5.09355 142.97 5.74788C137.864 7.66626 136.591 10.9195 134.481 13.5777C133.241 15.1429 132.376 15.6223 131.24 15.8751C131.213 15.8788 131.187 15.8788 131.168 15.89C122.522 18.8828 102.099 43.2118 106.509 76.7722C106.825 80.0662 107.544 83.2747 108.464 86.4162C116.902 118.631 145.173 161.835 152.113 174.096C146.999 185.458 136.085 208.786 132.603 230.754C132.457 231.502 131.618 236.551 131.564 240.786C131.094 251.962 133.267 262.178 139.983 269.517C140.021 269.565 141.296 270.889 141.354 270.944C144.778 274.205 148.829 276.279 152.896 277.529L152.901 277.527C158.663 279.914 163.051 278.581 167.276 277.886C169.174 278.993 171.153 279.848 173.167 280.514C177.284 281.886 181.563 282.418 185.672 282.395C193.663 282.34 201.015 280.146 205.208 277.885C213.731 275.212 217.617 270.376 220.051 262.895C222.504 255.846 226.259 241.451 217.763 220.155C213.935 210.954 206.265 196.559 194.426 175.639L194.353 175.513C203.834 158.184 229.236 115.314 233.761 102.778C234.003 102.116 234.219 101.477 234.431 100.837C242.106 81.8693 247.125 56.7706 233.981 33.4267C233.326 32.211 230.9 27.8204 230.061 26.2998C229.907 26.0247 229.805 25.8414 229.778 25.8005C219.172 6.99596 218.813 10.5638 212.185 9.43357C211.946 9.40011 211.69 9.3281 211.443 9.26861C203.899 7.59561 190.939 2.85567 184.615 0.610134C183.413 0.186307 181.852 0.00405806 180.042 0.00405806H179.961ZM187.833 165.174C187.44 164.527 187.063 163.917 186.682 163.292C172.078 137.952 156.354 115.876 147.808 95.1047C145.917 89.4909 144.439 83.9626 143.518 78.6722C140.295 63.5185 141.639 54.6107 147.639 42.3569C153.404 30.553 170.838 15.8268 180.593 20.3328C191.318 25.2923 197.218 26.4634 201.112 26.0061C204.851 25.56 206.707 23.5933 209.191 21.6303C209.707 21.1953 210.971 20.3513 211.079 20.2695C216.905 24.6008 220.922 29.6569 224.388 34.7131C253.78 77.5753 205.255 143.196 189.52 167.826C188.461 166.116 187.841 165.177 187.833 165.174ZM151.702 263.84C149.503 263.561 147.304 262.724 145.19 261.33C142.247 259.364 140.052 256.46 138.92 253.184C135.504 243.273 136.222 223.579 154.534 178.984C156.448 182.984 158.245 186.759 159.023 188.306C169.621 209.01 172.166 227.995 172.182 239.342C171.038 253.607 163.91 262.267 155.873 263.721C154.991 263.855 154.128 263.918 153.285 263.918C152.749 263.918 152.222 263.888 151.702 263.84Z" fill="url(#paint15_linear_270506_2423)"/>
<path d="M177.514 243.439C177.788 230.39 175.23 217.519 170.994 205.28C166.735 193.018 160.773 181.371 153.876 170.288C150.448 164.719 146.871 159.146 143.516 153.498C140.162 147.836 136.869 142.148 133.742 136.363C127.488 124.812 121.607 113.027 117.194 100.691C119.924 106.655 122.84 112.495 126.009 118.239C129.109 124.005 132.344 129.701 135.649 135.367C142.242 146.706 149.185 157.804 156.202 168.946C163.126 180.192 169.065 192.093 172.974 204.674C174.942 210.949 176.405 217.377 177.221 223.88C178.011 230.378 178.157 236.959 177.514 243.439Z" fill="#E1DEDA"/>
<path d="M126.006 118.239C129.106 124.002 132.348 129.705 135.645 135.367C137.004 137.702 138.375 140.029 139.766 142.349C143.748 148.472 148.203 154.778 153.091 160.893C175.508 188.977 189.595 217.586 179.44 245.194C177.595 250.22 178.523 252.577 180.861 252.674H181.169C187.616 252.421 203.348 236.747 203.602 213.15V211.998C203.429 195.788 195.923 175.972 173.309 154.904C138.156 129.129 117.198 100.699 117.198 100.699C119.925 106.658 122.836 112.499 126.006 118.239Z" fill="url(#paint16_linear_270506_2423)"/>
<path d="M154.534 178.984C153.725 177.207 153.093 175.93 152.111 174.094C147.001 185.459 136.089 208.786 132.603 230.754C132.465 231.498 131.617 236.559 131.563 240.789C131.64 241.544 131.758 242.256 131.908 242.906C134.982 255.71 139.765 257.889 141.756 258.216C140.512 256.729 139.558 255.02 138.927 253.18C135.507 243.276 136.218 223.579 154.534 178.984Z" fill="#F2EFEA"/>
<path d="M217.767 220.154C213.943 210.96 206.271 196.563 194.433 175.635L194.36 175.519C194.36 175.519 186.689 163.296 186.682 163.292C172.082 137.952 156.361 115.88 147.807 95.0972C145.924 89.4908 144.438 83.9649 143.521 78.6745C143.514 78.6522 143.514 78.6336 143.51 78.6113C143.502 78.5741 143.498 78.5444 143.487 78.5146C144.319 83.66 144.103 88.9876 145.821 97.1853C149.148 112.517 156.361 129.459 169.617 145.174C185.248 163.693 202.987 186.312 211.139 221.036C212.187 225.501 213.754 235.457 214.374 244.692C215.121 255.827 212.965 263.6 208.848 271.798C208.948 271.936 211.424 275.118 218.599 265.448C219.177 264.604 219.635 263.749 220.055 262.898C222.508 255.849 226.267 241.457 217.767 220.154Z" fill="#FFFBF7"/>
<path d="M116.522 52.0679C116.522 57.8156 121.348 62.4665 127.302 62.4665C133.259 62.4665 138.085 57.8156 138.085 52.0679C138.085 46.3202 133.259 41.6579 127.302 41.6579C121.348 41.6579 116.522 46.3202 116.522 52.0679ZM128.742 47.1454C127.652 46.7402 126.967 45.7364 126.959 44.6657C127.071 44.6582 127.182 44.636 127.302 44.636C129.069 44.636 130.679 45.2272 131.977 46.2012C131.457 46.9039 130.61 47.3201 129.728 47.3201C129.397 47.3201 129.066 47.2644 128.742 47.1454ZM120.131 49.3948C120.79 47.7553 122.037 46.4169 123.612 45.5804C123.855 45.9707 124.001 46.4353 124.001 46.9149C124.001 48.402 122.757 49.6029 121.221 49.6029C120.832 49.6029 120.474 49.5361 120.131 49.3948ZM125.646 54.7037L124.259 52.1832C124.105 51.8969 124.159 51.5474 124.383 51.3132L126.447 49.2609C126.678 49.0267 127.04 48.9598 127.336 49.1048L129.998 50.3612C130.302 50.5025 130.471 50.8111 130.421 51.1346L130.009 53.9638C129.963 54.2872 129.705 54.5402 129.381 54.5959L126.466 55.0865C126.424 55.094 126.374 55.094 126.331 55.094C126.046 55.094 125.784 54.9491 125.646 54.7037ZM132.516 52.592C132.516 51.3206 133.437 50.2684 134.654 49.9784C134.861 50.6476 135 51.3355 135 52.0679C135 53.146 134.754 54.1683 134.315 55.094C133.267 54.7148 132.516 53.7371 132.516 52.592ZM119.842 53.8226C120.065 53.7668 120.3 53.7296 120.547 53.7296C122.076 53.7296 123.327 54.9269 123.327 56.414C123.327 57.0311 123.112 57.5813 122.75 58.0348C121.317 57.0125 120.273 55.5402 119.842 53.8226ZM126.612 59.4326C126.786 58.1128 127.941 57.0943 129.354 57.0943C130.283 57.0943 131.103 57.5442 131.611 58.2245C130.387 59.0276 128.904 59.4959 127.302 59.4959C127.063 59.4959 126.836 59.4549 126.612 59.4326Z" fill="url(#paint17_linear_270506_2423)"/>
<path d="M128.581 33.197L131.069 37.3611L135.382 34.9592L132.894 30.7953L128.581 33.197Z" fill="url(#paint18_linear_270506_2423)"/>
<path d="M122.459 70.5233L126.049 73.8656L129.511 70.4155L125.925 67.062L122.459 70.5233Z" fill="url(#paint19_linear_270506_2423)"/>
<path d="M194.794 245.345C194.409 245.832 194.201 246.646 194.109 247.691C194.016 248.75 194.055 249.698 194.136 250.602C193.731 250.174 192.93 250.033 192.503 250.349C192.615 250.769 192.761 251.152 192.819 251.602C192.865 251.914 192.865 252.26 192.869 252.594C192.118 253.126 191.251 253.847 191.132 255.193C191.113 255.409 191.12 255.606 191.12 255.81C190.839 254.955 190.35 254.081 190.107 253.338C189.888 252.676 189.495 252.04 189.11 251.706C188.998 251.598 188.852 251.564 188.717 251.486C188.632 251.706 188.567 251.94 188.482 252.141C188.448 252.241 188.432 252.345 188.39 252.546C188.132 252.289 187.924 252.055 187.666 251.873C187.473 251.739 187.242 251.68 187.007 251.635C186.514 251.527 186.43 251.643 186.43 252.338C186.43 252.565 186.418 252.806 186.41 253.104C185.336 252.706 184.739 253.546 184.762 253.568C184.989 253.773 185.19 253.899 185.24 254.215C185.29 254.513 185.166 254.981 185.012 255.386C184.704 256.189 184.908 257.554 185.505 258.086C185.933 258.469 186.726 258.398 187.285 257.874C187.932 257.294 188.132 255.502 187.77 254.944C187.55 254.609 187.396 254.606 186.969 254.888C187.08 255.122 187.304 255.349 187.273 255.613C187.242 255.911 187.027 256.323 186.807 256.558C186.507 256.87 186.168 256.9 185.925 256.643C185.501 256.186 185.494 255.394 185.887 254.65C185.998 254.446 186.276 254.063 186.418 253.959C187.027 253.531 187.747 253.409 188.19 253.713C188.683 254.052 188.983 254.598 189.045 255.409C189.16 256.821 188.401 259.022 188.471 260.428C188.521 261.729 189.484 262.242 190.604 262.454C191.097 262.547 192.372 262.688 192.634 262.781C193.966 263.242 195.122 263.171 195.83 261.985C196.558 260.77 196.955 258.476 197.733 257.268C198.183 256.58 198.703 256.23 199.304 256.134C199.851 256.063 200.428 256.472 200.767 257.126C200.852 257.283 200.906 257.74 200.914 257.978C200.898 258.81 200.509 259.513 199.92 259.725C199.57 259.848 199.281 259.684 199.169 259.268C199.088 258.967 199.096 258.505 199.215 258.219C199.312 257.978 199.612 257.881 199.824 257.717C199.581 257.275 199.443 257.204 199.088 257.409C198.499 257.751 197.883 259.398 198.183 260.193C198.418 260.903 199.096 261.312 199.654 261.16C200.452 260.944 201.21 259.866 201.333 259C201.387 258.584 201.511 258.115 201.688 257.866C201.884 257.602 202.119 257.58 202.431 257.506C202.454 257.498 202.473 257.446 202.516 257.383C202.342 256.472 201.695 256.621 201.187 256.375C201.318 256.096 201.422 255.888 201.538 255.676C201.873 255.059 201.849 254.918 201.357 254.81C201.129 254.751 200.898 254.691 200.656 254.732C200.348 254.773 200.043 254.903 199.693 255.015C199.747 254.817 199.781 254.717 199.801 254.621C199.831 254.398 199.882 254.156 199.912 253.929C199.851 253.936 199.797 253.936 199.743 253.929C199.643 253.929 199.547 253.922 199.443 253.951C198.95 254.085 198.618 254.383 197.991 254.739C197.405 255.074 196.65 255.918 196.038 256.766C196.111 256.472 196.196 256.186 196.308 255.922C196.704 254.944 196.631 254.342 196.238 253.873L195.792 253.174C195.838 253.07 195.888 252.951 195.934 252.814C196.142 252.159 196.462 251.65 196.712 251.003C196.6 250.59 195.838 250.208 195.333 250.379C195.618 249.494 195.815 248.531 195.823 247.408C195.815 246.382 195.564 245.75 195.279 245.263C195.237 245.192 195.176 245.163 195.114 245.163C195.006 245.163 194.887 245.241 194.794 245.345ZM175.215 257.498C175.042 256.914 174.865 256.323 174.676 255.688C173.875 255.84 173.397 256.431 173.051 257.063C172.712 257.691 172.535 258.39 172.273 259.034C171.949 258.766 171.626 258.483 171.295 258.201C170.263 259.379 170.093 260.614 171.029 262.056C171.795 263.231 172.7 264.309 173.567 265.376C174.553 266.599 175.554 267.767 175.623 269.365C175.697 270.86 174.865 272.165 173.548 273.232C172.504 274.083 171.345 274.399 169.889 274.406C169.843 274.406 169.72 274.823 169.696 274.901C169.827 275.485 170.913 275.221 171.46 275.087C175.569 274.083 178.223 271.072 176.991 268.023C176.517 266.811 174.915 264.885 174.302 263.711C173.79 262.748 173.332 261.774 173.551 260.636C173.825 259.294 175.18 257.985 176.902 258.26C177.88 258.413 178.654 259.193 178.646 260.141C178.639 260.751 178.1 261.558 177.476 261.822C177.071 261.986 176.652 262.041 176.34 261.759C176.055 261.484 176.055 261.142 176.243 260.77C176.274 260.71 176.282 260.643 176.297 260.573C175.666 260.621 174.872 261.454 174.961 262.104C175.127 263.242 177.776 264.149 178.993 263.376C180.11 262.677 180.711 261.041 180.31 259.725C179.921 258.454 179.328 257.788 178.077 257.398C177.942 257.346 177.826 257.293 177.726 257.241C177.976 256.632 178.18 256.104 178.392 255.524C178.315 255.52 178.234 255.52 178.154 255.52C176.775 255.52 176.001 256.357 175.215 257.498ZM184.635 262.179C183.834 262.51 182.871 263.435 182.69 264.075C183.083 263.974 183.449 263.848 183.788 263.792C184.523 263.703 185.02 264.052 185.151 264.714C185.259 265.276 184.835 266.261 184.246 266.741C183.291 267.525 182.282 268.216 181.292 268.941C180.141 269.763 179.625 270.737 179.709 271.845C179.813 273.325 181.104 274.381 181.331 274.593C179.332 277.043 176.96 279.087 174.549 280.946C175.211 281.132 175.878 281.31 176.54 281.452C178.712 279.667 180.83 277.771 182.879 275.604C184.62 276.344 186.749 276.507 188.421 275.265C189.495 274.462 189.992 273.488 190.423 272.466C190.751 271.693 191.001 270.908 191.278 270.12C191.663 269.049 192.468 268.187 193.312 267.867C194.086 267.577 194.548 267.945 194.617 268.919C194.621 269.049 194.629 269.168 194.644 269.384C195.176 268.733 195.372 268.075 195.518 267.462C195.776 266.291 195.491 265.573 194.983 265.105C194.378 264.558 193.362 264.517 192.326 265.276C191.921 265.554 191.405 266.12 191.032 266.67C190.539 267.398 190.138 268.135 189.761 268.878C188.536 270.443 187.543 271.462 186.865 272.072C187.616 270.986 188.19 269.834 188.69 268.67C189.125 267.666 189.484 266.648 189.83 265.621C189.876 265.495 189.896 265.361 189.95 265.127C189.765 265.298 189.661 265.361 189.58 265.461C188.139 267.146 186.514 268.674 184.901 270.168C184.739 270.313 184.616 270.477 184.466 270.637C184.535 269.834 185.143 268.793 185.779 267.889C186.018 267.655 186.241 267.421 186.453 267.168C187.115 266.413 187.689 265.503 188.051 264.621C188.513 263.465 188.116 262.725 187.423 262.275C187.019 262.008 186.568 261.859 186.056 261.859C185.636 261.859 185.159 261.963 184.635 262.179ZM168.183 265.034C167.482 264.993 166.076 264.941 166.061 264.993C169.997 266.915 171.156 269.559 171.795 272.793C172.643 272.395 173.478 269.956 173.332 268.674C173.136 266.893 172.111 265.595 170.428 264.361C170.382 264.607 170.351 264.748 170.305 264.934C169.388 264.528 168.815 263.67 167.648 263.488C167.836 264.045 168.006 264.528 168.183 265.034ZM203.652 269.692C203.586 269.659 203.486 269.622 203.378 269.566C202.62 269.153 199.774 268.536 198.314 270.049C197.309 271.124 196.107 273.823 197.948 274.986C198.399 275.262 198.726 275.529 199.443 275.191C200.039 274.897 200.436 274.362 200.713 273.748C200.767 273.637 200.775 273.514 200.817 273.339C200.702 273.425 200.64 273.458 200.582 273.522C199.989 274.146 199.643 274.31 199.354 274.12C199.065 273.949 198.838 272.919 199.165 272.351C200.039 270.837 201.688 270.328 202.504 270.811C203.151 271.198 203.298 272.031 202.778 273.269C202.169 274.715 201.149 275.875 199.92 276.366C198.799 276.812 197.698 276.983 196.597 277.124C195.911 277.202 195.233 277.046 194.521 276.898C193.624 276.7 192.688 276.507 191.679 276.778C188.956 277.529 185.779 279.946 183.973 282.37C184.335 282.389 184.693 282.396 185.055 282.396C185.579 281.801 186.202 281.218 186.934 280.682C189.029 279.121 191.105 278.318 193.061 278.403C194.606 278.481 195.977 278.764 197.409 278.823C198.287 278.864 199.146 278.916 200.059 278.76C201.341 278.537 202.585 277.593 203.667 275.875C203.321 275.804 203.001 275.741 202.643 275.656C204.145 274.354 205.342 272.834 205.735 270.819C205.115 271.235 204.541 271.581 203.941 271.919C204.337 271.112 204.726 270.347 204.969 269.599C205.227 268.808 205.196 268.168 204.903 267.733C204.491 268.395 204.11 269.004 203.652 269.692ZM173.779 275.321C172.92 275.998 172.943 277.124 173.652 278.013C173.89 278.314 174.164 278.574 174.349 278.782C175.092 278.191 175.731 277.585 176.451 277.054C178.046 275.868 178.508 274.492 178.277 273.068C178.223 272.719 178.119 272.38 178.023 271.938C176.582 273.18 175.127 274.247 173.779 275.321ZM166.723 275.764C165.957 275.734 165.229 275.697 164.494 275.611C164.486 275.671 165.31 276.437 165.795 276.79C165.445 277.076 165.118 277.336 164.786 277.593C168.299 277.459 170.91 279.028 173.525 280.6C173.189 278.567 170.205 275.827 166.585 275.329C166.627 275.47 166.67 275.604 166.723 275.764ZM180.742 280.113C180.183 280.734 179.405 281.314 178.743 281.876C179.991 282.084 181.219 282.218 182.448 282.292C182.59 282.229 182.733 282.154 182.863 282.058C183.545 281.586 184.104 280.95 184.67 280.351C185.082 279.909 185.394 279.403 185.79 278.931C186.16 278.481 186.58 278.05 186.988 277.581C184.458 277.652 182.34 278.333 180.742 280.113ZM193.87 280.024C191.698 280.203 189.306 281.162 187.007 282.363C190.635 282.232 194.101 281.671 197.163 280.89C196.469 280.307 195.595 280.002 194.451 280.002C194.267 280.002 194.07 280.013 193.87 280.024Z" fill="url(#paint20_linear_270506_2423)"/>
<path d="M172.476 172.287C172.361 172.302 172.264 172.362 172.257 172.473V172.51C172.295 173.124 172.469 173.834 173.092 174.752C173.782 175.767 174.537 176.522 175.338 177.158C174.787 177.299 174.336 178.072 174.502 178.511C175.114 178.946 175.715 179.228 176.297 179.697C177.517 180.664 178.145 180.147 178.241 179.712C178.268 179.556 178.08 179.273 177.798 178.946C178.057 179.173 178.349 179.325 178.653 179.321C179.189 179.206 179.551 178.968 179.146 178.158C178.931 177.745 178.542 177.273 178.33 176.842C178.107 176.388 178.003 175.968 177.841 175.529C177.267 175.485 176.635 176.061 176.547 176.678C176.062 175.815 175.515 174.938 174.779 174.042C174.063 173.154 173.37 172.537 172.734 172.317C172.688 172.302 172.638 172.291 172.592 172.287H172.476ZM182.751 176.12C182.897 177.117 183.976 178.775 185.054 180.057C184.588 178.998 184.777 178.396 185.2 177.871C185.362 177.678 185.32 176.946 184.731 176.251C184.503 175.979 183.98 175.47 183.637 175.377C183.525 175.343 183.417 175.329 183.329 175.329C182.863 175.329 182.693 175.723 182.751 176.12ZM190.022 177.057C189.772 177.251 189.325 177.604 189.075 178.939C188.867 178.675 188.285 178.176 188.008 177.942C187.904 178.113 187.761 178.239 187.704 178.44C187.511 179.05 187.615 179.782 188.058 180.578C188.813 181.957 189.641 183.314 190.476 184.664C192.017 187.155 193.496 189.545 192.656 191.731C192.833 191.72 192.891 191.724 192.922 191.72C192.98 191.702 193.01 191.631 193.057 191.605C194.208 190.828 195.063 189.515 194.224 187.939C193.361 186.311 191.046 184.266 190.242 182.597C189.772 181.641 189.749 180.838 190.076 180.15C190.376 179.533 191.254 179.221 192.225 179.325C192.456 179.355 193.022 179.626 193.28 179.782C194.224 180.4 194.747 181.303 194.562 182.069C194.458 182.511 194.062 182.701 193.519 182.519C193.118 182.385 192.598 182.05 192.363 181.734C192.155 181.459 192.259 181.072 192.229 180.734C191.559 180.671 191.381 180.768 191.362 181.281C191.32 182.14 192.398 183.378 193.511 183.634C194.482 183.891 195.437 183.474 195.66 182.783C195.984 181.805 195.637 180.812 194.751 180.076C194.312 179.727 193.865 179.266 193.719 178.894C193.569 178.518 193.707 178.247 193.827 177.864C193.842 177.831 193.796 177.779 193.761 177.693C192.606 177.225 192.31 178.002 191.67 178.359C191.462 178.02 191.297 177.76 191.131 177.489C190.858 177.02 190.696 176.816 190.492 176.816C190.365 176.816 190.218 176.901 190.022 177.057ZM180.995 178.459C180.802 178.634 180.679 178.998 180.879 179.347C181.268 180.058 182.058 180.764 182.928 181.169C184.588 181.942 186.094 183.106 187.211 184.593C187.403 184.857 187.588 185.125 187.769 185.396C186.81 184.478 185.693 183.638 184.68 182.783C183.591 181.879 182.539 181.459 181.65 181.5C181.388 181.515 181.203 181.745 181.214 181.998C181.257 182.883 181.877 183.79 182.805 184.876C183.591 185.794 184.376 186.85 185.231 187.846C185.05 187.698 184.861 187.56 184.68 187.411C183.367 186.389 182.227 185.155 181.311 183.731C180.852 183.017 178.834 180.626 177.96 181.824C177.644 182.255 178.13 183.117 179.066 183.812C179.897 184.422 180.748 184.935 181.588 185.523C181.603 186.504 181.992 187.136 183.205 187.987C183.906 188.467 184.607 188.835 185.304 189.304C185.512 189.445 185.813 189.709 185.886 189.899C186.24 190.858 186.895 191.363 187.607 191.668C188.42 192.014 189.152 192.029 189.675 192.014C190.153 191.995 190.646 191.746 190.977 191.315C191.466 190.687 191.766 189.036 191.035 187.724C190.792 187.292 190.338 186.794 189.918 186.452C189.579 186.162 189.375 185.976 189.179 185.571C188.786 184.742 188.285 183.917 187.704 183.121C186.872 182.006 186.144 181.645 185.343 181.731C184.642 180.89 184.007 180.109 183.267 179.392C182.597 178.749 181.808 178.355 181.326 178.355C181.188 178.355 181.072 178.388 180.995 178.459ZM175.334 185.549C175.338 186.679 177.086 186.839 177.517 186.679C178.049 186.482 178.388 186.088 178.911 185.906C179.27 185.794 179.816 185.928 180.467 185.965C179.327 185.273 177.602 184.456 176.474 184.456C175.796 184.456 175.33 184.749 175.334 185.549ZM177.833 187.597C177.629 187.642 177.487 187.768 177.306 187.854C177.556 188.14 177.937 188.705 178.264 188.947C177.791 189.047 177.371 189.084 176.997 189.226C176.697 189.33 176.481 189.534 176.254 189.739C175.781 190.174 175.854 190.348 176.628 190.839C176.901 191.01 177.151 191.185 177.498 191.412C176.285 192.244 176.813 193.468 176.851 193.46C177.244 193.36 177.529 193.244 177.918 193.416C178.288 193.587 178.738 194.048 179.073 194.486C179.782 195.393 180.783 195.788 181.815 195.542C182.551 195.371 183.028 194.482 182.828 193.523C182.628 192.441 181.426 191.315 180.54 191.304C180.005 191.293 179.89 191.456 179.909 192.099C180.263 192.159 180.66 192.077 180.933 192.293C181.249 192.542 181.565 193.062 181.677 193.46C181.827 193.999 181.611 194.36 181.145 194.43C180.34 194.561 179.435 193.999 178.865 193.055C178.711 192.791 178.476 192.237 178.461 192.006C178.411 191.062 178.784 190.237 179.447 189.991C180.182 189.72 181.006 189.798 181.962 190.304C183.637 191.2 185.601 193.553 187.234 194.486C188.809 195.393 190.222 194.661 191.096 193.601C191.127 193.56 191.2 193.531 191.224 193.479C191.227 193.453 191.223 193.39 191.25 193.219C188.94 193.891 186.564 192.311 184.084 190.672C182.751 189.78 181.395 188.891 180.024 188.073C179.428 187.72 178.858 187.538 178.338 187.538C178.164 187.538 177.995 187.56 177.833 187.597ZM197.227 188.753C195.991 189.37 195.444 191.044 196.584 193.189C196.865 193.702 197.204 194.244 197.593 194.717C199.103 196.561 200.797 198.055 202.473 199.583C203.489 200.528 204.444 201.55 205.411 202.584C207.899 205.257 207.441 208.428 207.51 208.577C208.619 206.833 209.589 205.037 208.677 202.256C208.095 200.52 206.874 199.338 205.615 198.282C204.66 197.472 203.659 196.784 202.665 196.037C201.313 195.022 200.451 193.538 200.397 192.27C200.347 191.114 201.09 190.675 202.519 191.058C202.704 191.107 202.812 191.133 203.135 191.222C202.611 190.285 201.672 189.649 200.851 189.166C199.969 188.649 199.215 188.445 198.556 188.445C198.059 188.445 197.62 188.564 197.227 188.753ZM195.175 196.059C196.904 198.765 198.325 201.643 199.704 204.494C200.401 205.907 201.398 207.208 202.311 208.45C202.65 208.904 203.358 209.03 203.894 209.131C204.267 209.201 204.529 209.305 204.768 209.74C207.853 215.198 210.275 220.901 212.216 226.4C212.274 226.586 212.32 226.868 212.247 227.028C211.396 228.675 211.912 229.853 212.797 230.924C213.498 231.779 214.789 233.512 215.293 233.471C215.397 232.441 215.516 231.426 215.497 230.415C215.493 229.504 215.455 228.545 215.181 227.693C215.02 227.177 214.43 226.876 214.034 226.467C213.749 226.177 213.333 225.953 213.202 225.593C211.149 220.221 208.692 214.622 205.592 209.305C205.284 208.755 205.211 208.376 205.403 207.84C205.727 206.907 205.423 205.87 204.853 204.896C203.385 202.424 201.41 200.513 199.353 198.758C198.117 197.706 196.831 196.754 195.525 195.802C195.363 195.68 195.186 195.598 194.878 195.412C195.028 195.732 195.078 195.91 195.175 196.059ZM189.587 197.386C188.52 198.148 188 199.286 188.131 201.026C188.231 202.238 189.094 203.955 189.926 204.498C189.972 203.937 189.96 203.39 190.045 202.922C190.265 201.911 191 201.409 192.001 201.55C192.864 201.684 194.069 202.714 194.474 203.721C195.152 205.349 195.679 207.015 196.234 208.669C196.873 210.58 198.017 211.759 199.65 212.149C200.978 212.469 202.265 212.224 203.563 211.662C203.012 211.339 202.584 211.075 202.138 210.83C200.728 210.038 199.796 208.655 199.08 207.019C198.186 204.982 197.351 202.896 196.145 201.007C195.371 199.765 194.343 198.576 193.245 197.68C192.506 197.081 191.817 196.836 191.185 196.836C190.596 196.836 190.057 197.051 189.587 197.386ZM178.738 210.484C177.864 210.343 176.974 210.209 176.012 210.06C175.746 211.12 176.239 212.064 176.87 212.874C177.498 213.663 178.318 214.287 179.019 214.99C178.465 215.231 177.895 215.458 177.336 215.689C178.276 217.648 179.816 218.607 182.281 218.332C184.292 218.101 186.252 217.633 188.197 217.209C190.411 216.737 192.548 216.213 194.709 217.087C196.742 217.897 197.967 219.689 198.598 221.935C199.095 223.723 198.822 225.333 197.967 227.11C197.94 227.162 198.352 227.545 198.514 227.641C198.764 226.92 199.534 225.805 199.692 225.057C200.824 219.444 196.923 215.518 192.14 215.198C190.257 215.049 188.347 215.269 186.421 215.317C184.842 215.365 183.271 215.339 181.911 214.395C180.294 213.25 179.366 210.815 180.756 208.878C181.553 207.774 183.048 207.305 184.288 207.87C185.104 208.246 185.851 209.387 185.82 210.309C185.805 210.911 185.628 211.454 185.062 211.662C184.523 211.852 184.076 211.651 183.691 211.186C183.629 211.119 183.544 211.071 183.471 211.012C183.148 211.807 183.783 213.265 184.704 213.547C186.298 214.034 187.904 212.053 187.607 210.108C187.349 208.327 186.49 206.833 184.869 206.134C183.09 205.372 181.58 205.643 180.317 206.922C180.167 207.063 180.028 207.168 179.901 207.272C179.235 206.599 178.657 206.03 178.022 205.42C176.974 207.227 177.633 208.755 178.738 210.484ZM187.777 213.413C189.591 213.358 191.478 211.112 190.623 209.116C190.007 207.625 188.146 206.398 186.702 205.543C188.94 208.015 189.845 210.699 187.777 213.413ZM210.945 216.525C211.584 217.562 212.008 218.763 212.489 219.894C214.23 218.871 215.462 216.841 214.746 214.644C214.38 213.521 213.749 212.484 213.159 211.462C212.709 210.696 212.143 210.034 211.658 209.294C211.18 208.584 210.764 207.829 210.283 207.067C209.177 210.447 209.15 213.562 210.945 216.525ZM204.24 220.756C204.806 222.217 206.432 222.73 208.045 222.217C208.584 222.039 209.097 221.804 209.478 221.659C208.981 220.392 208.415 219.269 207.995 218.061C207.059 215.384 205.307 214.116 203.15 213.741C202.623 213.655 202.076 213.625 201.406 213.544C202.511 216.038 203.339 218.458 204.24 220.756ZM185.085 220.526C185.416 220.711 185.601 220.808 185.847 220.957C184.842 221.983 183.333 222.325 182.508 223.779C183.406 223.793 184.184 223.801 184.981 223.808C184.6 224.712 183.86 226.552 183.922 226.6C188.543 222.303 192.879 222.028 197.817 222.738C197.651 221.425 194.547 219.15 192.641 218.734C192.032 218.6 191.439 218.533 190.858 218.533C188.901 218.533 187.06 219.265 185.085 220.526ZM214.323 221.905C215.559 221.436 216.787 221.001 218 220.756C217.919 220.555 217.848 220.352 217.767 220.154C217.559 219.653 217.33 219.128 217.103 218.592C215.894 219.536 214.873 220.745 214.323 221.905ZM214.565 224.861C214.496 224.883 214.446 224.98 214.323 225.158C216.179 225.478 216.868 227.054 217.215 228.879C218.289 228.627 218.774 227.734 219.244 226.927C219.649 227.284 220.026 227.708 220.457 228.013C220.084 226.701 219.664 225.355 219.19 223.979C218.944 223.953 218.694 223.935 218.451 223.935C217.142 223.935 215.851 224.321 214.565 224.861ZM198.425 231.147C198.648 231.155 198.872 231.158 199.122 231.162C198.714 232.155 198.31 233.11 197.844 234.036C197.917 234.081 199.419 233.356 200.154 232.88C200.397 233.489 200.609 234.04 200.82 234.597C202.303 229.887 205.781 227.195 209.274 224.485C209.016 224.44 208.742 224.422 208.457 224.422C205.322 224.422 200.659 226.987 198.425 231.147ZM209.774 227.957C208.565 228.961 207.441 230.069 206.832 231.586C206.235 233.043 206.424 234.211 207.391 235.203C208.604 234.136 209.509 233.062 209.154 231.709C210.002 231.664 210.81 231.608 211.835 231.537C211.076 229.928 210.606 228.504 211.642 226.786C211.584 226.742 211.534 226.693 211.473 226.656C210.93 227.098 210.333 227.504 209.774 227.957ZM216.926 230.032C217.55 231.058 217.993 231.961 218.62 232.709C219.056 233.263 219.772 233.627 220.658 233.263C220.966 233.144 221.382 232.831 221.593 232.523C221.509 232.125 221.416 231.727 221.32 231.318C220.696 231.389 220.215 231.036 219.818 230.757C219.156 230.3 218.447 230.006 217.465 230.006C217.296 230.006 217.115 230.013 216.926 230.032ZM210.525 234.891C210.275 235.687 209.928 236.341 208.827 236.568C209.266 237.185 209.936 237.3 210.71 237.215C211.438 237.129 211.946 236.631 212.262 236.084C212.744 235.255 212.797 234.259 212.682 233.4C212.62 232.928 212.524 232.37 212.366 232.062C211.365 232.947 210.857 233.895 210.525 234.891ZM218.112 236.244C218.971 236.717 220.226 236.17 220.916 234.806C219.772 235.11 219.36 234.415 218.774 233.843C218.258 233.345 217.596 233.017 216.934 232.567C216.591 233.954 217.18 235.746 218.112 236.244ZM213.306 236.021C213.333 236.772 213.344 237.449 212.547 238.144C213.306 238.36 213.968 238.177 214.623 237.676C215.212 237.237 215.389 236.694 215.358 236.081C215.301 235.014 214.492 233.739 213.452 233.266C213.429 234.274 213.263 235.189 213.306 236.021ZM216.833 239.163C216.934 239.311 217.061 239.393 217.219 239.408H217.334C217.469 239.397 217.627 239.349 217.812 239.259C218.339 239.003 218.516 238.713 218.436 238.319C218.22 237.207 217.376 236.516 216.448 235.85C216.271 237.114 216.221 238.252 216.833 239.163Z" fill="url(#paint21_linear_270506_2423)"/>
<path d="M139.056 163.258L140.627 162.392L136.349 155.19L134.777 156.057L136.422 158.834L128.65 163.143L129.629 164.793L137.404 160.481L139.056 163.258ZM146.069 171.538L138.374 172.716L143.281 166.849L141.756 164.295L132.417 169.474L133.391 171.121L140.539 167.162L140.566 167.206L134.928 173.701L135.729 175.047L144.378 173.631L144.405 173.664L137.265 177.627L138.243 179.274L147.586 174.099L146.069 171.538Z" fill="#BCBAB7"/>
<path d="M149.341 396.444C147.201 396.444 146.286 393.689 146.286 386.107C146.286 382.172 148.27 381.189 153.927 381.189C155.412 381.189 156.599 381.2 157.737 381.219C155.933 386.58 153.513 396.444 149.341 396.444ZM137.87 391.274C137.87 393.281 138.069 394.993 138.43 396.444H108.513C104.534 396.444 101.991 395.555 101.991 392.012V382.172H111.414C112.183 379.96 112.69 377.937 112.944 375.779H101.994C102.039 372.743 102.268 370.031 102.497 366.92C98.9303 368.149 96.1297 369.575 93.8327 372.038V375.779H88.9897C88.584 378.437 88.584 380.449 88.4833 382.172H93.8327V392.506C93.8327 399.739 98.3707 402.84 104.587 402.84H145.262C150.245 402.84 154.072 398.896 157.751 389.972V402.84H165.904V375.779C162.236 375.482 158.87 375.282 155.203 375.282C145.111 375.282 137.87 379.32 137.87 391.274ZM180.688 388.273V385.618C180.688 382.172 180.43 379.22 179.924 375.779H172.023C172.278 379.22 172.532 382.172 172.532 385.618V402.84H180.688C180.688 393.192 183.897 382.221 192.408 383.404C192.408 381.681 192.153 377.743 191.647 375.282C185.433 375.803 182.389 381.089 180.688 388.273ZM68.3475 396.444C66.2071 396.444 65.2895 393.689 65.2895 386.107C65.2895 382.172 67.2787 381.189 72.9331 381.189C74.4187 381.189 75.605 381.2 76.7493 381.219C74.9391 386.58 72.5246 396.444 68.3475 396.444ZM56.882 391.274C56.882 399.445 59.9373 403.331 64.0164 403.331C69.0133 403.331 73.003 399.061 76.7605 389.959V402.84H84.9161V375.779C81.2453 375.482 77.8824 375.282 74.2089 375.282C64.1172 375.282 56.882 379.32 56.882 391.274ZM322.637 378.728C322.637 371.99 317.794 367.903 309.129 367.903C304.34 367.903 300.826 368.886 298.682 369.875C297.46 371.544 296.9 373.467 296.134 376.511C299.396 375.282 302.555 374.302 307.347 374.302C311.169 374.302 314.23 375.876 314.23 380.206C314.23 384.876 311.222 388.273 294.858 397.424C294.858 398.41 294.911 400.376 295.37 402.84H322.38C323.149 400.625 323.656 398.659 323.91 396.444H300.921C312.406 392.652 322.637 388.692 322.637 378.728ZM37.6751 395.282L37.2554 395.064C32.3649 392.557 25.7872 388.722 25.7872 381.732C25.7872 375.331 30.0735 372.33 35.2186 372.33C40.929 372.33 44.3926 376.217 44.3926 383.012C44.3926 387.69 41.7235 391.817 37.6751 395.282ZM53.312 403.331L39.8854 396.42C47.4842 393.754 53.0574 388.495 53.0574 381.04C53.0574 371.001 45.2572 365.937 35.2186 365.937C25.9943 365.937 17.1252 371.644 17.1252 382.666C17.1252 391.966 24.4639 397.524 32.516 401.608L58.4069 414.648C58.4069 408.892 57.6962 405.592 53.312 403.331ZM244.142 400.376C241.853 400.376 234.713 395.898 234.713 383.898C234.713 377.988 238.283 374.302 244.142 374.302C250.003 374.302 253.576 377.988 253.576 383.898C253.576 395.898 246.439 400.376 244.142 400.376ZM244.142 367.903C233.952 367.903 226.303 373.807 226.303 383.404C226.303 395.95 238.793 403.331 244.142 403.331C249.497 403.331 261.981 395.95 261.981 383.404C261.981 373.807 254.34 367.903 244.142 367.903ZM244.257 381.319C242.475 382.545 240.944 383.979 239.596 385.618C240.944 387.258 242.475 388.687 244.257 389.918C246.039 388.687 247.564 387.258 248.923 385.618C247.564 383.979 246.039 382.545 244.257 381.319ZM291.039 378.728C291.039 371.99 286.193 367.903 277.525 367.903C272.738 367.903 269.222 368.886 267.078 369.875C265.859 371.544 265.296 373.467 264.53 376.511C267.795 375.282 270.956 374.302 275.746 374.302C279.568 374.302 282.629 375.876 282.629 380.206C282.629 384.876 279.621 388.273 263.259 397.424C263.259 398.41 263.31 400.376 263.769 402.84H290.784C291.545 400.625 292.057 398.659 292.312 396.444H269.319C280.807 392.652 291.039 388.692 291.039 378.728ZM222.224 378.728C222.224 371.99 217.387 367.903 208.722 367.903C203.929 367.903 200.412 368.886 198.275 369.875C197.049 371.544 196.487 373.467 195.726 376.511C198.985 375.282 202.147 374.302 206.94 374.302C210.759 374.302 213.817 375.876 213.817 380.206C213.817 384.876 210.809 388.273 194.45 397.424C194.45 398.41 194.501 400.376 194.962 402.84H221.975C222.742 400.625 223.248 398.659 223.5 396.444H200.51C211.992 392.652 222.224 388.692 222.224 378.728Z" fill="white"/>
<path d="M291.788 356.311C290.632 356.592 289.362 356.857 287.983 357.108C286.592 357.359 284.877 357.481 282.826 357.481C280.806 357.481 278.761 357.219 276.696 356.689C274.632 356.163 272.771 355.312 271.115 354.14C269.456 352.97 268.096 351.428 267.044 349.521C265.984 347.614 265.46 345.275 265.46 342.518C265.46 339.984 265.897 337.759 266.761 335.852C267.626 333.942 268.835 332.357 270.376 331.082C271.921 329.815 273.756 328.87 275.877 328.243C277.997 327.614 280.3 327.303 282.782 327.303C284.343 327.303 285.856 327.446 287.328 327.741C288.803 328.03 290.274 328.386 291.743 328.805L291.1 335.12C289.799 334.42 288.506 333.904 287.225 333.572C285.935 333.237 284.6 333.07 283.218 333.07C281.772 333.07 280.476 333.305 279.321 333.783C278.165 334.253 277.178 334.909 276.352 335.744C275.527 336.584 274.892 337.58 274.444 338.736C273.997 339.89 273.778 341.151 273.778 342.518C273.778 343.938 274.027 345.221 274.536 346.366C275.037 347.506 275.731 348.473 276.612 349.27C277.494 350.061 278.554 350.669 279.794 351.088C281.036 351.504 282.39 351.714 283.867 351.714C285.193 351.714 286.508 351.568 287.806 351.274C289.107 350.985 290.302 350.629 291.399 350.21L291.788 356.311Z" fill="white"/>
<path d="M320.801 345.902C320.801 347.911 320.482 349.635 319.847 351.088C319.212 352.535 318.314 353.735 317.144 354.68C315.972 355.631 314.573 356.333 312.942 356.792C311.311 357.257 309.512 357.481 307.548 357.481C305.586 357.481 303.79 357.257 302.156 356.792C300.528 356.333 299.129 355.631 297.957 354.68C296.787 353.735 295.889 352.535 295.254 351.088C294.619 349.635 294.3 347.911 294.3 345.902V327.8H302.355V344.608C302.355 345.583 302.433 346.493 302.593 347.344C302.749 348.198 303.029 348.946 303.415 349.602C303.804 350.256 304.333 350.772 304.996 351.147C305.656 351.525 306.512 351.714 307.548 351.714C308.588 351.714 309.442 351.525 310.108 351.147C310.773 350.772 311.297 350.256 311.688 349.602C312.074 348.946 312.351 348.198 312.511 347.344C312.665 346.493 312.749 345.583 312.749 344.608V327.8H320.801V345.902Z" fill="white"/>
<path d="M332.886 341.262H334.962C335.656 341.262 336.305 341.198 336.912 341.076C337.517 340.947 338.045 340.725 338.49 340.406C338.938 340.088 339.293 339.666 339.553 339.15C339.811 338.637 339.942 338.002 339.942 337.252C339.942 336.495 339.811 335.869 339.553 335.372C339.293 334.869 338.938 334.464 338.49 334.156C338.045 333.851 337.517 333.632 336.912 333.511C336.305 333.381 335.656 333.319 334.962 333.319H332.886V341.262ZM324.829 327.801H334.442C339.092 327.801 342.513 328.576 344.71 330.121C346.9 331.671 348 334.086 348 337.376C348 340.331 346.945 342.637 344.838 344.293C342.726 345.954 339.783 346.78 336 346.78H332.886V356.979H324.829V327.801Z" fill="white"/>
<path d="M97.4899 327.8H105.718L109.618 350.21H109.705L113.77 327.8H123.991L128.235 350.21H128.325L132.264 327.8H140.103L133.344 356.981H122.998L118.711 334.574H118.622L114.64 356.981H104.202L97.4899 327.8Z" fill="white"/>
<path d="M148.72 342.392C148.72 343.594 148.849 344.755 149.112 345.884C149.369 347.011 149.769 348.007 150.32 348.872C150.869 349.736 151.577 350.425 152.447 350.941C153.311 351.456 154.347 351.716 155.564 351.716C156.772 351.716 157.819 351.456 158.683 350.941C159.548 350.425 160.253 349.736 160.798 348.872C161.349 348.007 161.755 347.011 162.015 345.884C162.273 344.755 162.404 343.594 162.404 342.392C162.404 341.142 162.273 339.948 162.015 338.821C161.755 337.692 161.349 336.701 160.798 335.848C160.253 335.002 159.548 334.324 158.683 333.822C157.819 333.32 156.772 333.074 155.564 333.074C154.347 333.074 153.311 333.32 152.447 333.822C151.577 334.324 150.869 335.002 150.32 335.848C149.769 336.701 149.369 337.692 149.112 338.821C148.849 339.948 148.72 341.142 148.72 342.392ZM140.402 342.392C140.402 340.05 140.73 337.946 141.379 336.08C142.025 334.214 142.987 332.631 144.258 331.337C145.528 330.041 147.111 329.041 148.997 328.347C150.888 327.65 153.076 327.299 155.564 327.299C158.042 327.299 160.23 327.65 162.122 328.347C164.013 329.041 165.594 330.041 166.864 331.337C168.134 332.631 169.094 334.214 169.746 336.08C170.395 337.946 170.716 340.05 170.716 342.392C170.716 344.704 170.395 346.795 169.746 348.664C169.094 350.533 168.123 352.121 166.842 353.428C165.557 354.738 163.971 355.743 162.077 356.437C160.191 357.136 158.012 357.485 155.564 357.485C153.076 357.485 150.9 357.136 149.02 356.437C147.151 355.743 145.567 354.738 144.28 353.428C142.996 352.121 142.025 350.533 141.379 348.664C140.73 346.795 140.402 344.704 140.402 342.392Z" fill="white"/>
<path d="M181.804 339.926H183.922C184.56 339.926 185.231 339.904 185.936 339.861C186.647 339.82 187.282 339.688 187.844 339.466C188.407 339.24 188.877 338.907 189.249 338.462C189.627 338.013 189.811 337.376 189.811 336.536C189.811 335.869 189.649 335.32 189.313 334.888C188.983 334.456 188.552 334.127 188.018 333.905C187.484 333.684 186.862 333.532 186.152 333.446C185.447 333.36 184.705 333.319 183.922 333.319H181.804V339.926ZM173.752 327.801H188.127C189.45 327.801 190.712 327.95 191.893 328.239C193.076 328.533 194.117 328.989 195.012 329.603C195.902 330.216 196.604 330.977 197.111 331.896C197.617 332.819 197.869 333.905 197.869 335.158C197.869 337.108 197.393 338.713 196.437 339.969C195.488 341.219 194.028 342.07 192.066 342.518V342.599C192.701 342.764 193.213 343.029 193.605 343.396C193.994 343.758 194.333 344.209 194.621 344.752C194.912 345.298 195.175 345.924 195.421 346.635C195.67 347.345 195.978 348.147 196.358 349.041L199.299 356.979H190.902L189.165 351.715C188.759 350.459 188.376 349.427 188.018 348.62C187.657 347.815 187.263 347.172 186.848 346.699C186.429 346.221 185.953 345.897 185.416 345.716C184.882 345.533 184.244 345.444 183.494 345.444H181.804V356.979H173.752V327.801Z" fill="white"/>
<path d="M202.766 327.8H210.818V351.212H223.29V356.981H202.766V327.8Z" fill="white"/>
<path d="M234.16 351.212H237.277C240.307 351.212 242.632 350.475 244.246 348.995C245.863 347.52 246.674 345.321 246.674 342.391C246.674 339.466 245.846 337.264 244.201 335.787C242.556 334.31 240.251 333.57 237.277 333.57H234.16V351.212ZM226.102 327.8H237.1C239.73 327.8 242.142 328.027 244.333 328.47C246.529 328.916 248.409 329.691 249.987 330.793C251.557 331.892 252.788 333.378 253.666 335.244C254.547 337.108 254.989 339.452 254.989 342.267C254.989 345 254.539 347.298 253.644 349.165C252.748 351.034 251.509 352.544 249.92 353.7C248.333 354.856 246.442 355.69 244.246 356.206C242.052 356.722 239.671 356.981 237.1 356.981H226.102V327.8Z" fill="white"/>
<path fill-rule="evenodd" clip-rule="evenodd" d="M0 327.8V356.981H9.40622V346.442H16.1797L18.5886 340.065H9.40622V334.156H20.8101L23.2106 327.8H0Z" fill="white"/>
<path fill-rule="evenodd" clip-rule="evenodd" d="M26.0901 356.979H35.4963V327.798H26.0901V356.979Z" fill="white"/>
<path fill-rule="evenodd" clip-rule="evenodd" d="M41.9706 327.8V356.981H51.3824V346.442H58.1503L60.5592 340.065H51.3824V334.156H62.7807L65.184 327.8H41.9706Z" fill="white"/>
<path fill-rule="evenodd" clip-rule="evenodd" d="M79.8348 347.452L76.0717 335.298L72.4402 347.452H79.8348ZM92.12 356.981H82.6186L81.3904 353.06H70.7587L69.5808 356.981H60.3201L71.3323 327.8H81.1134L92.12 356.981Z" fill="white"/>
<defs>
<linearGradient id="paint0_linear_270506_2423" x1="24.823" y1="30.221" x2="81.877" y2="229.432" gradientUnits="userSpaceOnUse">
<stop stop-color="#858380"/>
<stop offset="1" stop-color="#A19F9C"/>
</linearGradient>
<linearGradient id="paint1_linear_270506_2423" x1="81.4216" y1="468.157" x2="155.625" y2="184.871" gradientUnits="userSpaceOnUse">
<stop stop-color="#9D9B98"/>
<stop offset="1" stop-color="#797775"/>
</linearGradient>
<linearGradient id="paint2_linear_270506_2423" x1="252.649" y1="327.668" x2="146.216" y2="-103.757" gradientUnits="userSpaceOnUse">
<stop stop-color="#797775"/>
<stop offset="0.842522" stop-color="#F2EFEA"/>
<stop offset="1" stop-color="#F2EFEA"/>
</linearGradient>
<linearGradient id="paint3_linear_270506_2423" x1="174.018" y1="54.744" x2="174.018" y2="1013.49" gradientUnits="userSpaceOnUse">
<stop stop-color="#9D9B98"/>
<stop offset="1" stop-color="#F2EFEA"/>
</linearGradient>
<linearGradient id="paint4_linear_270506_2423" x1="329.094" y1="3.74179" x2="219.095" y2="452.699" gradientUnits="userSpaceOnUse">
<stop stop-color="#9D9B98"/>
<stop offset="1" stop-color="#F2EFEA"/>
</linearGradient>
<linearGradient id="paint5_linear_270506_2423" x1="315.904" y1="7.49428" x2="241.972" y2="443.069" gradientUnits="userSpaceOnUse">
<stop stop-color="#F2EFEA"/>
<stop offset="1" stop-color="#44433E"/>
</linearGradient>
<linearGradient id="paint6_linear_270506_2423" x1="173.997" y1="422.912" x2="173.997" y2="15.4494" gradientUnits="userSpaceOnUse">
<stop stop-color="#F2EFEA"/>
<stop offset="1" stop-color="#F2EFEA"/>
</linearGradient>
<linearGradient id="paint7_linear_270506_2423" x1="55.4767" y1="103.143" x2="373.931" y2="209.323" gradientUnits="userSpaceOnUse">
<stop stop-color="#FAF6F2"/>
<stop offset="1" stop-color="#FFFBF7"/>
</linearGradient>
<linearGradient id="paint8_linear_270506_2423" x1="-0.0066295" y1="207.449" x2="347.977" y2="207.449" gradientUnits="userSpaceOnUse">
<stop stop-color="#B0AEAB"/>
<stop offset="1" stop-color="#FAF6F2"/>
</linearGradient>
<linearGradient id="paint9_linear_270506_2423" x1="393.873" y1="-162.138" x2="-106.455" y2="-87.6805" gradientUnits="userSpaceOnUse">
<stop stop-color="#FFFBF7"/>
<stop offset="0.527027" stop-color="#FFFBF7"/>
<stop offset="1" stop-color="#B4B2AF"/>
</linearGradient>
<linearGradient id="paint10_linear_270506_2423" x1="-0.00549989" y1="207.364" x2="347.99" y2="207.364" gradientUnits="userSpaceOnUse">
<stop stop-color="#CCC9C6"/>
<stop offset="1" stop-color="#FAF6F2"/>
</linearGradient>
<linearGradient id="paint11_linear_270506_2423" x1="239.086" y1="415.938" x2="232.811" y2="1.74541" gradientUnits="userSpaceOnUse">
<stop stop-color="#FFFBF7"/>
<stop offset="1" stop-color="#FFFBF7"/>
</linearGradient>
<linearGradient id="paint12_linear_270506_2423" x1="0.0178944" y1="207.325" x2="348.008" y2="207.325" gradientUnits="userSpaceOnUse">
<stop stop-color="#DAD7D3"/>
<stop offset="1" stop-color="#FAF6F2"/>
</linearGradient>
<linearGradient id="paint13_linear_270506_2423" x1="196.622" y1="131.599" x2="192.607" y2="311.352" gradientUnits="userSpaceOnUse">
<stop stop-color="#BBB8B5"/>
<stop offset="1" stop-color="#FAF6F2"/>
</linearGradient>
<linearGradient id="paint14_linear_270506_2423" x1="174.001" y1="379.504" x2="174.001" y2="17.7339" gradientUnits="userSpaceOnUse">
<stop stop-color="#DAD7D3"/>
<stop offset="0.512418" stop-color="#FFFBF7"/>
<stop offset="1" stop-color="#EEEBE7"/>
</linearGradient>
<linearGradient id="paint15_linear_270506_2423" x1="174.001" y1="400.722" x2="174.001" y2="38.9621" gradientUnits="userSpaceOnUse">
<stop stop-color="#DAD7D3"/>
<stop offset="0.512418" stop-color="#FFFBF7"/>
<stop offset="1" stop-color="#EEEBE7"/>
</linearGradient>
<linearGradient id="paint16_linear_270506_2423" x1="280.33" y1="-14.4854" x2="216.672" y2="385.829" gradientUnits="userSpaceOnUse">
<stop stop-color="#FAF6F2"/>
<stop offset="0.512418" stop-color="#FFFBF7"/>
<stop offset="0.677314" stop-color="#FFFBF7"/>
<stop offset="0.90099" stop-color="#EBE7E3"/>
<stop offset="1" stop-color="#CCC9C6"/>
</linearGradient>
<linearGradient id="paint17_linear_270506_2423" x1="351.687" y1="572.886" x2="-148.861" y2="-151.903" gradientUnits="userSpaceOnUse">
<stop stop-color="#791426"/>
<stop offset="0.534653" stop-color="#AF1C3B"/>
<stop offset="1" stop-color="#791426"/>
</linearGradient>
<linearGradient id="paint18_linear_270506_2423" x1="263.754" y1="391.838" x2="-1322.54" y2="-1905.92" gradientUnits="userSpaceOnUse">
<stop stop-color="#791426"/>
<stop offset="0.534653" stop-color="#AF1C3B"/>
<stop offset="1" stop-color="#791426"/>
</linearGradient>
<linearGradient id="paint19_linear_270506_2423" x1="1141.95" y1="2198.54" x2="-389.019" y2="-17.8756" gradientUnits="userSpaceOnUse">
<stop stop-color="#791426"/>
<stop offset="0.534653" stop-color="#AF1C3B"/>
<stop offset="1" stop-color="#791426"/>
</linearGradient>
<linearGradient id="paint20_linear_270506_2423" x1="-154.413" y1="-854.718" x2="986.132" y2="1271.35" gradientUnits="userSpaceOnUse">
<stop stop-color="#791426"/>
<stop offset="0.534653" stop-color="#AF1C3B"/>
<stop offset="1" stop-color="#791426"/>
</linearGradient>
<linearGradient id="paint21_linear_270506_2423" x1="-192.863" y1="835.69" x2="369.195" y2="-652.126" gradientUnits="userSpaceOnUse">
<stop stop-color="#791426"/>
<stop offset="0.534653" stop-color="#AF1C3B"/>
<stop offset="1" stop-color="#791426"/>
</linearGradient>
</defs>
</svg>
